<?xml version="1.0" encoding="utf-8"?>
<!-- Generator: Adobe Illustrator 27.9.5, SVG Export Plug-In . SVG Version: 9.03 Build 54986)  -->
<svg version="1.1" id="Calque_2_00000083788958462536576050000007816534174593092529_"
	 xmlns="http://www.w3.org/2000/svg" xmlns:xlink="http://www.w3.org/1999/xlink" x="0px" y="0px" viewBox="0 0 792.5 792.5"
	 style="enable-background:new 0 0 792.5 792.5;" xml:space="preserve">
<style type="text/css">
	.st0{fill:#FFFFFF;}
	.st1{clip-path:url(#SVGID_00000169530741235869853560000013312296190137129362_);}
	.st2{fill:none;stroke:#F08213;stroke-width:15;stroke-miterlimit:10;}
	.st3{fill:none;stroke:#D22717;stroke-width:15;stroke-miterlimit:10;}
	.st4{fill:none;stroke:#2F4798;stroke-width:15;stroke-miterlimit:10;}
	.st5{fill:none;stroke:#3BA0DA;stroke-width:15;stroke-miterlimit:10;}
	.st6{fill:none;stroke:#3DAC8A;stroke-width:15;stroke-miterlimit:10;}
	.st7{fill:none;stroke:#F9C129;stroke-width:15;stroke-miterlimit:10;}
	.st8{fill:url(#SVGID_00000105389985132954620210000004925592009929388166_);}
	.st9{fill:url(#SVGID_00000181056259297951961320000004824011517117203072_);}
	.st10{fill:url(#SVGID_00000044159200608609369970000012229569735338237623_);}
	.st11{fill:url(#SVGID_00000124844840520856111420000008732080846500926139_);}
	.st12{fill:url(#SVGID_00000163788026938350504290000013907850784063882165_);}
	.st13{fill:url(#SVGID_00000094596607823750403260000013677981243396891285_);}
</style>
<circle cx="396.3" cy="396.3" r="396.3"/>
<path class="st0" d="M475.9,388h-65.3l12.7,28h25v35.7c-13.6,12.8-31.9,20.6-52,20.6c-42,0-76-34-76-76s34-76,76-76
	c21.5,0,41,9,54.8,23.4l20.2-19.4c-18.9-19.7-45.5-32-75-32c-57.4,0-104,46.6-104,104s46.6,104,104,104c32,0,60.5-14.4,79.6-37.1
	L475.9,388L475.9,388z"/>
<g>
	<defs>
		<path id="SVGID_1_" d="M431.3,206.3c0,19.3-15.7,35-35,35s-35-15.7-35-35c0-19.3,15.7-35,35-35S431.3,187,431.3,206.3z
			 M396.3,551.3c-19.3,0-35,15.7-35,35s15.7,35,35,35s35-15.7,35-35S415.6,551.3,396.3,551.3z M181.3,423.8
			c15.2,0,27.5-12.3,27.5-27.5s-12.3-27.5-27.5-27.5s-27.5,12.3-27.5,27.5S166.1,423.8,181.3,423.8z M611.3,423.8
			c15.2,0,27.5-12.3,27.5-27.5s-12.3-27.5-27.5-27.5s-27.5,12.3-27.5,27.5S596.1,423.8,611.3,423.8z M480,196.4
			c-7.6,13.2-3.1,30,10.1,37.6s30,3.1,37.6-10.1c7.6-13.2,3.1-30-10.1-37.6C504.4,178.7,487.6,183.2,480,196.4L480,196.4z
			 M265,568.7c-7.6,13.2-3.1,30,10.1,37.6s30,3.1,37.6-10.1c7.6-13.2,3.1-30-10.1-37.6S272.6,555.6,265,568.7z M265,223.9
			c7.6,13.2,24.4,17.7,37.6,10.1c13.2-7.6,17.7-24.4,10.1-37.6s-24.4-17.7-37.6-10.1C261.9,193.9,257.4,210.7,265,223.9z M480,596.2
			c7.6,13.2,24.4,17.7,37.6,10.1c13.2-7.6,17.7-24.4,10.1-37.6c-7.6-13.2-24.4-17.7-37.6-10.1C476.9,566.3,472.4,583.1,480,596.2
			L480,596.2z M201.4,283.8c-9.7,16.7-3.9,38.1,12.8,47.8s38.1,3.9,47.8-12.8c9.7-16.7,3.9-38.1-12.8-47.8S211.1,267.1,201.4,283.8
			L201.4,283.8z M530.5,473.8c-9.7,16.7-3.9,38.1,12.8,47.8c16.7,9.7,38.1,3.9,47.8-12.8s3.9-38.1-12.8-47.8
			S540.2,457.1,530.5,473.8z M201.4,508.8c9.7,16.7,31.1,22.5,47.8,12.8s22.5-31.1,12.8-47.8s-31.1-22.5-47.8-12.8
			S191.8,492.1,201.4,508.8z M530.5,318.8c9.7,16.7,31.1,22.5,47.8,12.8s22.5-31.1,12.8-47.8c-9.7-16.7-31.1-22.5-47.8-12.8
			S520.9,302.1,530.5,318.8z M138.3,304.7c-12.4,0-22.5,10.1-22.5,22.5c0,12.4,10.1,22.5,22.5,22.5s22.5-10.1,22.5-22.5
			C160.8,314.8,150.7,304.7,138.3,304.7z M654.3,442.9c-12.4,0-22.5,10.1-22.5,22.5s10.1,22.5,22.5,22.5s22.5-10.1,22.5-22.5
			S666.7,442.9,654.3,442.9z M127.1,445.9c-10.8,6.2-14.4,20-8.2,30.7c6.2,10.8,20,14.4,30.7,8.2c10.8-6.2,14.4-20,8.2-30.7
			S137.8,439.7,127.1,445.9z M643,307.7c-10.8,6.2-14.4,20-8.2,30.7c6.2,10.8,20,14.4,30.7,8.2s14.4-20,8.2-30.7
			C667.6,305.2,653.8,301.5,643,307.7z M187.9,573.9c-6.2,10.8-2.5,24.5,8.2,30.7c10.8,6.2,24.5,2.5,30.7-8.2
			c6.2-10.8,2.5-24.5-8.2-30.7S194.2,563.2,187.9,573.9z M565.7,196.2c-6.2,10.8-2.5,24.5,8.2,30.7c10.8,6.2,24.5,2.5,30.7-8.2
			c6.2-10.8,2.5-24.5-8.2-30.7C585.7,181.7,571.9,185.4,565.7,196.2z M304.7,654.3c0,12.4,10.1,22.5,22.5,22.5s22.5-10.1,22.5-22.5
			s-10.1-22.5-22.5-22.5S304.7,641.9,304.7,654.3z M442.9,138.3c0,12.4,10.1,22.5,22.5,22.5s22.5-10.1,22.5-22.5
			c0-12.4-10.1-22.5-22.5-22.5S442.9,125.9,442.9,138.3z M445.9,665.5c6.2,10.8,20,14.4,30.7,8.2s14.4-20,8.2-30.7
			s-20-14.4-30.7-8.2S439.7,654.8,445.9,665.5z M307.7,149.6c6.2,10.8,20,14.4,30.7,8.2c10.7-6.2,14.4-20,8.2-30.7
			c-6.2-10.8-20-14.4-30.7-8.2C305.2,125,301.5,138.8,307.7,149.6z M573.9,604.7c10.8,6.2,24.5,2.5,30.7-8.2
			c6.2-10.8,2.5-24.5-8.2-30.7s-24.5-2.5-30.7,8.2S563.2,598.4,573.9,604.7z M196.2,226.9c10.8,6.2,24.5,2.5,30.7-8.2
			c6.2-10.8,2.5-24.5-8.2-30.7c-10.8-6.2-24.5-2.5-30.7,8.2C181.7,206.9,185.4,220.7,196.2,226.9z M88.6,383.7
			c-6.9,1.9-11,9-9.2,15.9c1.9,6.9,9,11,15.9,9.2c6.9-1.9,11-9,9.2-15.9S95.5,381.9,88.6,383.7z M697.3,383.7
			c-6.9,1.9-11,9-9.2,15.9s9,11,15.9,9.2s11-9,9.2-15.9S704.2,381.9,697.3,383.7z M123.5,539.3c-5.1,5.1-5.1,13.3,0,18.4
			c5.1,5.1,13.3,5.1,18.4,0s5.1-13.3,0-18.4C136.8,534.2,128.6,534.2,123.5,539.3z M650.7,234.9c-5.1,5.1-5.1,13.3,0,18.4
			c5.1,5.1,13.3,5.1,18.4,0c5.1-5.1,5.1-13.3,0-18.4C664,229.9,655.8,229.9,650.7,234.9z M231.6,656.5c-1.9,6.9,2.3,14.1,9.2,15.9
			c6.9,1.9,14.1-2.3,15.9-9.2c1.8-6.9-2.3-14.1-9.2-15.9C240.6,645.5,233.4,649.6,231.6,656.5L231.6,656.5z M535.9,129.4
			c-1.9,6.9,2.3,14.1,9.2,15.9c6.9,1.9,14.1-2.3,15.9-9.2c1.9-6.9-2.3-14.1-9.2-15.9C544.9,118.4,537.8,122.4,535.9,129.4z
			 M383.7,704c1.9,6.9,9,11,15.9,9.2c6.9-1.9,11-9,9.2-15.9s-9-11-15.9-9.2C386,690,381.9,697.1,383.7,704z M383.7,95.3
			c1.9,6.9,9,11,15.9,9.2c6.9-1.8,11-9,9.2-15.9s-9-11-15.9-9.2C386,81.2,381.9,88.4,383.7,95.3z M539.3,669.1
			c5.1,5.1,13.3,5.1,18.4,0s5.1-13.3,0-18.4c-5.1-5.1-13.3-5.1-18.4,0S534.2,664,539.3,669.1z M234.9,141.9c5.1,5.1,13.3,5.1,18.4,0
			c5.1-5.1,5.1-13.3,0-18.4c-5.1-5.1-13.3-5.1-18.4,0C229.9,128.6,229.9,136.8,234.9,141.9z M656.5,561c6.9,1.9,14.1-2.3,15.9-9.2
			s-2.3-14.1-9.2-15.9c-6.9-1.9-14.1,2.3-15.9,9.2S649.6,559.2,656.5,561z M129.4,256.7c6.9,1.9,14.1-2.3,15.9-9.2
			c1.9-6.9-2.3-14.1-9.2-15.9s-14.1,2.3-15.9,9.2S122.4,254.8,129.4,256.7z"/>
	</defs>
	<clipPath id="SVGID_00000064314472997189933510000010214960211482831761_">
		<use xlink:href="#SVGID_1_"  style="overflow:visible;"/>
	</clipPath>
	<g style="clip-path:url(#SVGID_00000064314472997189933510000010214960211482831761_);">
		<g>
			<line class="st2" x1="723.6" y1="208.4" x2="436.1" y2="374.4"/>
			<line class="st3" x1="396.3" y1="17.3" x2="396.3" y2="349.3"/>
			<line class="st4" x1="68" y1="207.1" x2="355.3" y2="373.2"/>
			<line class="st5" x1="66.5" y1="585.6" x2="355.6" y2="419.8"/>
			<line class="st6" x1="394.5" y1="775.1" x2="394.7" y2="443.5"/>
			<line class="st7" x1="721.9" y1="587.4" x2="435.3" y2="422.1"/>
			
				<linearGradient id="SVGID_00000105422063339633525970000008809152388244372871_" gradientUnits="userSpaceOnUse" x1="217.334" y1="1869.213" x2="389.414" y2="1968.5631" gradientTransform="matrix(1 0 0 -1 0 2155.8899)">
				<stop  offset="0.2" style="stop-color:#2F4798"/>
				<stop  offset="0.5" style="stop-color:#683B88"/>
				<stop  offset="0.8" style="stop-color:#D22717"/>
			</linearGradient>
			<polygon style="fill:url(#SVGID_00000105422063339633525970000008809152388244372871_);" points="68,207.1 355.3,373.2 
				396.3,349.3 396.3,17.3 			"/>
			
				<linearGradient id="SVGID_00000127038797293724568070000005357240639679810449_" gradientUnits="userSpaceOnUse" x1="575.309" y1="1868.3583" x2="401.3491" y2="1968.7883" gradientTransform="matrix(1 0 0 -1 0 2155.8899)">
				<stop  offset="0.2" style="stop-color:#F08213"/>
				<stop  offset="0.8" style="stop-color:#D22717"/>
			</linearGradient>
			<polygon style="fill:url(#SVGID_00000127038797293724568070000005357240639679810449_);" points="723.6,208.4 436.3,374.2 
				396.3,349.3 396.3,17.3 			"/>
			
				<linearGradient id="SVGID_00000014607267926930666710000015296550022288854660_" gradientUnits="userSpaceOnUse" x1="211.76" y1="1663.67" x2="211.76" y2="1851.8101" gradientTransform="matrix(1 0 0 -1 0 2155.8899)">
				<stop  offset="0.2" style="stop-color:#3BA0DA"/>
				<stop  offset="0.5" style="stop-color:#3561AB"/>
				<stop  offset="0.8" style="stop-color:#2F4798"/>
			</linearGradient>
			<polygon style="fill:url(#SVGID_00000014607267926930666710000015296550022288854660_);" points="68.3,585.4 355.6,419.8 
				355.3,373.2 68,207.1 			"/>
			
				<linearGradient id="SVGID_00000044896277727454712970000000513304279355671998_" gradientUnits="userSpaceOnUse" x1="1953.7676" y1="2268.9304" x2="1953.7676" y2="2457.2805" gradientTransform="matrix(0.5 -0.866 -0.866 -0.5 1373.4974 3430.4653)">
				<stop  offset="0.2" style="stop-color:#3DAC8A"/>
				<stop  offset="0.8" style="stop-color:#3BA0DA"/>
			</linearGradient>
			<polygon style="fill:url(#SVGID_00000044896277727454712970000000513304279355671998_);" points="394.5,775.1 394.7,443.5 
				354,420 66.5,585.6 			"/>
			
				<linearGradient id="SVGID_00000170255501020063093360000004392674936621665202_" gradientUnits="userSpaceOnUse" x1="3348.7356" y1="1062.8705" x2="3348.7356" y2="1251.2305" gradientTransform="matrix(-0.5 -0.866 -0.866 0.5 3164.0576 2878.2656)">
				<stop  offset="0.2" style="stop-color:#F9C129"/>
				<stop  offset="0.5" style="stop-color:#97C45B"/>
				<stop  offset="0.8" style="stop-color:#3DAC8A"/>
			</linearGradient>
			<polygon style="fill:url(#SVGID_00000170255501020063093360000004392674936621665202_);" points="721.9,587.4 435.3,422.1 
				394.1,444.9 393.8,776.7 			"/>
			
				<linearGradient id="SVGID_00000170983910257501545850000014142715000160916404_" gradientUnits="userSpaceOnUse" x1="3001.72" y1="-749.4299" x2="3001.72" y2="-560.28" gradientTransform="matrix(-1 0 0 1 3581.1299 1051.5)">
				<stop  offset="0.2" style="stop-color:#F08213"/>
				<stop  offset="0.8" style="stop-color:#F9C129"/>
			</linearGradient>
			<polygon style="fill:url(#SVGID_00000170983910257501545850000014142715000160916404_);" points="723.6,208.4 436.3,374.2 
				435.3,422.1 722.9,588.8 			"/>
		</g>
	</g>
</g>
</svg>
