<?xml version="1.0" encoding="utf-8"?>
<!-- Generator: Adobe Illustrator 27.9.5, SVG Export Plug-In . SVG Version: 9.03 Build 54986)  -->
<svg version="1.1" id="Calque_2_00000075841463538926744100000008796744383247619973_"
	 xmlns="http://www.w3.org/2000/svg" xmlns:xlink="http://www.w3.org/1999/xlink" x="0px" y="0px" viewBox="0 0 880.4 880.3"
	 style="enable-background:new 0 0 880.4 880.3;" xml:space="preserve">
<style type="text/css">
	.st0{fill:#FFFFFF;}
	.st1{clip-path:url(#SVGID_00000047774944995721749340000005133821846816432520_);}
	.st2{fill:none;stroke:#F08213;stroke-width:15;stroke-miterlimit:10;}
	.st3{fill:none;stroke:#D22717;stroke-width:15;stroke-miterlimit:10;}
	.st4{fill:none;stroke:#2F4798;stroke-width:15;stroke-miterlimit:10;}
	.st5{fill:none;stroke:#3BA0DA;stroke-width:15;stroke-miterlimit:10;}
	.st6{fill:none;stroke:#3DAC8A;stroke-width:15;stroke-miterlimit:10;}
	.st7{fill:none;stroke:#F9C129;stroke-width:15;stroke-miterlimit:10;}
	.st8{fill:url(#SVGID_00000030457470151802300970000018259033060166943880_);}
	.st9{fill:url(#SVGID_00000080924849494067236140000013389848730836650143_);}
	.st10{fill:url(#SVGID_00000120549143909527894710000002333980086352839320_);}
	.st11{fill:url(#SVGID_00000038413948017158782690000013281052378892658574_);}
	.st12{fill:url(#SVGID_00000154417957670278245940000003708795821940080302_);}
	.st13{fill:url(#SVGID_00000083802613312404640370000002550315844091807667_);}
</style>
<path class="st0" d="M524.4,452.3h-4.1l0,0h-48.5l0,0h-12.7l12.7,28h25V516c-13.6,12.8-31.9,20.6-52,20.6c-42,0-76-34-76-76
	s34-76,76-76c21.5,0,41,9,54.8,23.4l20.2-19.4c-18.9-19.7-45.5-32-75-32c-57.4,0-104,46.6-104,104s46.6,104,104,104
	c32,0,60.5-14.4,79.6-37.1V452.3z"/>
<g>
	<g>
		<g>
			<g>
				<g>
					<g>
						<g>
							<defs>
								<path id="SVGID_1_" d="M479.8,270.6c0,19.3-15.7,35-35,35s-35-15.7-35-35c0-19.3,15.7-35,35-35S479.8,251.3,479.8,270.6z
									 M444.8,615.6c-19.3,0-35,15.7-35,35s15.7,35,35,35s35-15.7,35-35S464.1,615.6,444.8,615.6z M229.8,488.1
									c15.2,0,27.5-12.3,27.5-27.5s-12.3-27.5-27.5-27.5s-27.5,12.3-27.5,27.5C202.3,475.8,214.6,488.1,229.8,488.1z M659.8,488.1
									c15.2,0,27.5-12.3,27.5-27.5s-12.3-27.5-27.5-27.5s-27.5,12.3-27.5,27.5C632.3,475.8,644.6,488.1,659.8,488.1z M528.5,260.7
									c-7.6,13.2-3.1,30,10.1,37.6c13.2,7.6,30,3.1,37.6-10.1s3.1-30-10.1-37.6C552.9,243,536.1,247.5,528.5,260.7z M313.5,633
									c-7.6,13.2-3.1,30,10.1,37.6s30,3.1,37.6-10.1c7.6-13.2,3.1-30-10.1-37.6S321.1,619.9,313.5,633z M313.5,288.2
									c7.6,13.2,24.4,17.7,37.6,10.1c13.2-7.6,17.7-24.4,10.1-37.6c-7.6-13.2-24.4-17.7-37.6-10.1
									C310.4,258.2,305.9,275,313.5,288.2z M528.5,660.5c7.6,13.2,24.4,17.7,37.6,10.1c13.2-7.6,17.7-24.4,10.1-37.6
									c-7.6-13.2-24.4-17.7-37.6-10.1C525.4,630.6,520.9,647.4,528.5,660.5z M249.9,348.1c-9.7,16.7-3.9,38.1,12.8,47.8
									c16.7,9.7,38.1,3.9,47.8-12.8c9.7-16.7,3.9-38.1-12.8-47.8C281,325.6,259.6,331.4,249.9,348.1z M579,538.1
									c-9.7,16.7-3.9,38.1,12.8,47.8s38.1,3.9,47.8-12.8s3.9-38.1-12.8-47.8S588.7,521.4,579,538.1z M249.9,573.1
									c9.7,16.7,31.1,22.5,47.8,12.8s22.5-31.1,12.8-47.8s-31.1-22.5-47.8-12.8S240.3,556.4,249.9,573.1z M579,383.1
									c9.7,16.7,31.1,22.5,47.8,12.8s22.5-31.1,12.8-47.8c-9.7-16.7-31.1-22.5-47.8-12.8C575.1,345,569.4,366.4,579,383.1z
									 M186.8,369c-12.4,0-22.5,10.1-22.5,22.5s10.1,22.5,22.5,22.5s22.5-10.1,22.5-22.5C209.3,379,199.2,369,186.8,369z
									 M702.8,507.2c-12.4,0-22.5,10.1-22.5,22.5s10.1,22.5,22.5,22.5s22.5-10.1,22.5-22.5S715.2,507.2,702.8,507.2z M175.6,510.2
									c-10.8,6.2-14.4,20-8.2,30.7c6.2,10.8,20,14.4,30.7,8.2c10.8-6.2,14.4-20,8.2-30.7S186.3,504,175.6,510.2z M691.5,372
									c-10.8,6.2-14.4,20-8.2,30.7c6.2,10.8,20,14.4,30.7,8.2s14.4-20,8.2-30.7C716.1,369.5,702.3,365.8,691.5,372z M236.4,638.2
									c-6.2,10.8-2.5,24.5,8.2,30.7c10.8,6.2,24.5,2.5,30.7-8.2c6.2-10.8,2.5-24.5-8.2-30.7S242.7,627.5,236.4,638.2z
									 M614.2,260.5c-6.2,10.8-2.5,24.5,8.2,30.7c10.8,6.2,24.5,2.5,30.7-8.2c6.2-10.8,2.5-24.5-8.2-30.7
									C634.2,246,620.4,249.7,614.2,260.5z M353.2,718.6c0,12.4,10.1,22.5,22.5,22.5s22.5-10.1,22.5-22.5s-10.1-22.5-22.5-22.5
									S353.2,706.2,353.2,718.6z M491.4,202.6c0,12.4,10.1,22.5,22.5,22.5s22.5-10.1,22.5-22.5c0-12.4-10.1-22.5-22.5-22.5
									S491.4,190.2,491.4,202.6z M494.4,729.8c6.2,10.8,20,14.4,30.7,8.2s14.4-20,8.2-30.7s-20-14.4-30.7-8.2
									S488.2,719.1,494.4,729.8z M356.2,213.9c6.2,10.8,20,14.4,30.7,8.2c10.7-6.2,14.4-20,8.2-30.7c-6.2-10.8-20-14.4-30.7-8.2
									C353.7,189.3,350,203.1,356.2,213.9z M622.4,669c10.8,6.2,24.5,2.5,30.7-8.2c6.2-10.8,2.5-24.5-8.2-30.7s-24.5-2.5-30.7,8.2
									S611.7,662.7,622.4,669z M244.7,291.2c10.8,6.2,24.5,2.5,30.7-8.2c6.2-10.8,2.5-24.5-8.2-30.7c-10.8-6.2-24.5-2.5-30.7,8.2
									C230.2,271.2,233.9,285,244.7,291.2z M137.1,448c-6.9,1.9-11,9-9.2,15.9c1.9,6.9,9,11,15.9,9.2c6.9-1.9,11-9,9.2-15.9
									C151.2,450.3,144,446.2,137.1,448z M745.8,448c-6.9,1.9-11,9-9.2,15.9s9,11,15.9,9.2s11-9,9.2-15.9S752.7,446.2,745.8,448z
									 M172,603.6c-5.1,5.1-5.1,13.3,0,18.4c5.1,5.1,13.3,5.1,18.4,0s5.1-13.3,0-18.4C185.3,598.5,177.1,598.5,172,603.6z
									 M699.2,299.2c-5.1,5.1-5.1,13.3,0,18.4c5.1,5.1,13.3,5.1,18.4,0c5.1-5.1,5.1-13.3,0-18.4
									C712.5,294.2,704.3,294.2,699.2,299.2z M280.1,720.8c-1.9,6.9,2.3,14.1,9.2,15.9c6.9,1.9,14.1-2.3,15.9-9.2
									s-2.3-14.1-9.2-15.9C289.1,709.8,281.9,713.9,280.1,720.8z M584.4,193.7c-1.9,6.9,2.3,14.1,9.2,15.9
									c6.9,1.9,14.1-2.3,15.9-9.2c1.9-6.9-2.3-14.1-9.2-15.9S586.3,186.7,584.4,193.7z M432.2,768.3c1.9,6.9,9,11,15.9,9.2
									c6.9-1.9,11-9,9.2-15.9s-9-11-15.9-9.2C434.5,754.3,430.4,761.4,432.2,768.3z M432.2,159.6c1.9,6.9,9,11,15.9,9.2
									s11-9,9.2-15.9c-1.8-6.9-9-11-15.9-9.2S430.4,152.7,432.2,159.6z M587.8,733.4c5.1,5.1,13.3,5.1,18.4,0s5.1-13.3,0-18.4
									c-5.1-5.1-13.3-5.1-18.4,0S582.7,728.3,587.8,733.4z M283.4,206.2c5.1,5.1,13.3,5.1,18.4,0c5.1-5.1,5.1-13.3,0-18.4
									c-5.1-5.1-13.3-5.1-18.4,0C278.4,192.9,278.4,201.1,283.4,206.2z M705,625.3c6.9,1.9,14.1-2.3,15.9-9.2s-2.3-14.1-9.2-15.9
									c-6.9-1.9-14.1,2.3-15.9,9.2S698.1,623.5,705,625.3z M177.9,321c6.9,1.9,14.1-2.3,15.9-9.2c1.9-6.9-2.3-14.1-9.2-15.9
									c-6.9-1.8-14.1,2.3-15.9,9.2S170.9,319.1,177.9,321z"/>
							</defs>
							<clipPath id="SVGID_00000002360599298634809700000015034753427045812356_">
								<use xlink:href="#SVGID_1_"  style="overflow:visible;"/>
							</clipPath>
							<g style="clip-path:url(#SVGID_00000002360599298634809700000015034753427045812356_);">
								<line class="st2" x1="772.1" y1="272.7" x2="484.6" y2="438.7"/>
								<line class="st3" x1="444.8" y1="81.6" x2="444.8" y2="413.6"/>
								<line class="st4" x1="116.5" y1="271.4" x2="403.8" y2="437.5"/>
								<line class="st5" x1="115" y1="649.9" x2="404.1" y2="484.1"/>
								<line class="st6" x1="443" y1="839.4" x2="443.2" y2="507.8"/>
								<line class="st7" x1="770.4" y1="651.7" x2="483.8" y2="486.4"/>
								
									<linearGradient id="SVGID_00000013172027691527109430000007766278720988829089_" gradientUnits="userSpaceOnUse" x1="265.8734" y1="-1251.0923" x2="437.959" y2="-1350.446" gradientTransform="matrix(1 0 0 1 0 1602.11)">
									<stop  offset="0.2" style="stop-color:#2F4798"/>
									<stop  offset="0.5" style="stop-color:#683B88"/>
									<stop  offset="0.8" style="stop-color:#D22717"/>
								</linearGradient>
								<polygon style="fill:url(#SVGID_00000013172027691527109430000007766278720988829089_);" points="116.5,271.4 403.8,437.5 
									444.8,413.6 444.8,81.6 								"/>
								
									<linearGradient id="SVGID_00000039097746420064729300000014749122529251970207_" gradientUnits="userSpaceOnUse" x1="623.8523" y1="-1250.231" x2="449.8989" y2="-1350.6631" gradientTransform="matrix(1 0 0 1 0 1602.11)">
									<stop  offset="0.2" style="stop-color:#F08213"/>
									<stop  offset="0.8" style="stop-color:#D22717"/>
								</linearGradient>
								<polygon style="fill:url(#SVGID_00000039097746420064729300000014749122529251970207_);" points="772.1,272.7 484.8,438.5 
									444.8,413.6 444.8,81.6 								"/>
								
									<linearGradient id="SVGID_00000145051112642843535040000002383947486476161185_" gradientUnits="userSpaceOnUse" x1="260.3" y1="-1045.5465" x2="260.3" y2="-1233.6837" gradientTransform="matrix(1 0 0 1 0 1602.11)">
									<stop  offset="0.2" style="stop-color:#3BA0DA"/>
									<stop  offset="0.5" style="stop-color:#3561AB"/>
									<stop  offset="0.8" style="stop-color:#2F4798"/>
								</linearGradient>
								<polygon style="fill:url(#SVGID_00000145051112642843535040000002383947486476161185_);" points="116.8,649.7 404.1,484.1 
									403.8,437.5 116.5,271.4 								"/>
								
									<linearGradient id="SVGID_00000111193498996182372140000006863935768031154340_" gradientUnits="userSpaceOnUse" x1="2736.7849" y1="-2638.9709" x2="2736.7849" y2="-2827.3237" gradientTransform="matrix(0.5 -0.866 0.866 0.5 1350.9764 4357.8979)">
									<stop  offset="0.2" style="stop-color:#3DAC8A"/>
									<stop  offset="0.8" style="stop-color:#3BA0DA"/>
								</linearGradient>
								<polygon style="fill:url(#SVGID_00000111193498996182372140000006863935768031154340_);" points="443,839.4 443.2,507.8 
									402.5,484.3 115,649.9 								"/>
								
									<linearGradient id="SVGID_00000093168460759735198890000013814280375044613512_" gradientUnits="userSpaceOnUse" x1="5354.8677" y1="-1290.9114" x2="5354.8677" y2="-1479.2643" gradientTransform="matrix(-0.5 -0.866 0.866 -0.5 4413.0884 4565.8286)">
									<stop  offset="0.2" style="stop-color:#F9C129"/>
									<stop  offset="0.5" style="stop-color:#97C45B"/>
									<stop  offset="0.8" style="stop-color:#3DAC8A"/>
								</linearGradient>
								<polygon style="fill:url(#SVGID_00000093168460759735198890000013814280375044613512_);" points="770.4,651.7 483.8,486.4 
									442.6,509.2 442.3,841 								"/>
								
									<linearGradient id="SVGID_00000048469255968731477020000017972052106360195766_" gradientUnits="userSpaceOnUse" x1="5496.2734" y1="1651.5577" x2="5496.2734" y2="1462.4061" gradientTransform="matrix(-1 0 0 -1 6124.2236 2017.9711)">
									<stop  offset="0.2" style="stop-color:#F08213"/>
									<stop  offset="0.8" style="stop-color:#F9C129"/>
								</linearGradient>
								<polygon style="fill:url(#SVGID_00000048469255968731477020000017972052106360195766_);" points="772.1,272.7 484.8,438.5 
									483.8,486.4 771.4,653.1 								"/>
							</g>
						</g>
					</g>
				</g>
			</g>
		</g>
	</g>
</g>
</svg>
